<?xml version="1.0" standalone="no"?>
<!DOCTYPE svg PUBLIC "-//W3C//DTD SVG 20010904//EN"
 "http://www.w3.org/TR/2001/REC-SVG-20010904/DTD/svg10.dtd">
<svg version="1.0" xmlns="http://www.w3.org/2000/svg"
 width="1024.000000pt" height="1024.000000pt" viewBox="0 0 1024.000000 1024.000000"
 preserveAspectRatio="xMidYMid meet">

<g transform="translate(0.000000,1024.000000) scale(0.100000,-0.100000)"
fill="#000000" stroke="none">
<path d="M4895 9024 c-545 -61 -1074 -231 -1560 -502 -640 -357 -1195 -912
-1564 -1564 -276 -488 -434 -1005 -482 -1575 -16 -189 -7 -695 15 -863 34
-261 98 -537 181 -787 135 -405 307 -738 561 -1086 391 -535 825 -901 1420
-1200 457 -229 862 -353 1384 -424 208 -28 707 -26 925 4 401 56 761 154 1106
301 895 384 1590 1028 2014 1868 216 428 357 914 416 1444 20 175 17 669 -4
853 -92 780 -387 1460 -910 2097 -103 126 -426 443 -550 540 -619 487 -1293
778 -2037 882 -194 27 -720 34 -915 12z m792 -644 c577 -74 1123 -291 1617
-643 312 -222 635 -550 833 -847 304 -455 482 -934 549 -1475 21 -166 23 -534
5 -695 -87 -768 -361 -1413 -811 -1909 -487 -538 -1071 -891 -1765 -1067 -304
-77 -586 -110 -879 -101 -806 23 -1585 326 -2199 856 -206 178 -425 424 -565
634 -523 784 -702 1803 -476 2712 123 492 341 917 675 1315 119 142 349 367
489 479 288 231 686 449 1050 576 303 105 589 162 945 189 100 8 384 -5 532
-24z"/>
<path d="M5148 8145 c-65 -18 -133 -59 -189 -115 -79 -79 -119 -178 -119 -296
0 -128 47 -233 149 -327 107 -100 256 -138 396 -102 90 24 144 54 208 117 68
67 111 153 128 255 32 196 -93 396 -289 462 -72 24 -208 27 -284 6z m48 -229
c75 -75 24 -186 -84 -186 -110 0 -151 144 -58 201 50 31 102 25 142 -15z"/>
<path d="M5865 7618 c-4 -18 -25 -73 -46 -123 l-39 -90 98 -100 c53 -54 99
-102 102 -105 3 -3 37 -43 76 -90 227 -274 385 -566 453 -835 l10 -40 144 -48
c160 -54 356 -146 489 -230 l88 -55 19 26 c35 51 101 162 101 172 0 37 -390
233 -585 295 -33 11 -61 20 -63 21 -1 1 -22 52 -46 115 -24 63 -64 155 -89
206 l-47 92 43 -19 c67 -28 129 -33 194 -15 111 31 189 110 218 220 36 137
-25 278 -148 343 -45 23 -64 27 -142 27 -74 0 -98 -4 -131 -22 -92 -49 -155
-141 -163 -240 l-6 -64 -75 98 c-41 53 -105 132 -141 174 -87 101 -292 319
-301 319 -3 0 -10 -15 -13 -32z m805 -438 c30 -30 27 -83 -6 -109 -35 -28 -69
-26 -99 4 -50 49 -19 125 50 125 22 0 43 -8 55 -20z"/>
<path d="M4597 7493 c-282 -312 -510 -660 -628 -953 l-46 -115 -100 -36 c-171
-62 -397 -171 -511 -247 -11 -7 -1 -30 44 -102 31 -50 63 -94 70 -97 7 -2 33
9 57 25 95 66 328 173 528 243 l96 33 22 76 c85 288 291 621 599 965 l80 90
-25 44 c-14 24 -38 77 -53 118 l-27 75 -106 -119z"/>
<path d="M3315 7214 c-11 -2 -51 -12 -90 -20 -215 -49 -398 -219 -450 -416
-12 -44 -12 -48 3 -44 71 20 112 27 176 29 l74 2 11 36 c12 41 70 98 130 129
139 70 386 76 687 15 65 -13 119 -23 120 -22 1 1 33 48 72 104 l70 101 -77 21
c-164 44 -309 63 -511 67 -107 1 -204 1 -215 -2z"/>
<path d="M7125 7199 c4 -13 9 -67 10 -119 l3 -95 43 -3 c319 -18 478 -196 439
-490 -50 -382 -468 -1163 -882 -1646 -4 -5 -3 6 2 25 6 18 10 91 10 161 0 96
3 128 13 128 6 0 36 34 65 76 l53 76 -25 32 c-13 18 -61 70 -106 117 -68 71
-86 97 -113 164 -100 245 -309 496 -542 649 -150 100 -294 161 -474 205 l-115
28 79 37 c144 67 258 114 380 155 66 23 126 43 132 46 8 3 -13 41 -58 105 -61
87 -74 100 -92 94 -182 -56 -680 -292 -882 -418 -27 -17 -89 -44 -138 -59
-103 -33 -283 -123 -388 -194 -221 -150 -430 -391 -535 -618 -19 -41 -38 -75
-43 -75 -11 0 -174 -140 -259 -223 -323 -315 -761 -973 -917 -1377 -63 -165
-86 -263 -92 -398 -7 -142 4 -205 50 -299 96 -199 297 -328 562 -364 168 -22
467 5 749 67 87 19 159 34 161 32 2 -2 25 -33 52 -69 26 -36 71 -94 100 -130
29 -35 75 -93 103 -129 81 -102 221 -258 266 -295 l42 -34 6 37 c3 20 23 73
45 117 l39 79 -86 91 c-169 177 -357 430 -470 631 -82 145 -162 348 -193 487
l-12 57 -71 20 c-240 69 -461 166 -629 275 -48 32 -89 56 -91 54 -19 -23 -126
-188 -126 -195 0 -15 189 -126 310 -183 129 -60 220 -96 329 -132 l85 -27 38
-113 c20 -63 60 -160 88 -217 28 -56 49 -106 46 -111 -3 -4 -22 -11 -43 -14
-21 -3 -76 -13 -123 -21 -379 -68 -636 -63 -793 16 -263 132 -273 416 -29 903
168 337 496 812 722 1047 l80 83 -7 -40 c-5 -22 -8 -111 -7 -198 l0 -157 -36
41 -37 42 -56 -78 -56 -78 22 -31 c62 -87 180 -228 215 -256 25 -20 49 -52 62
-84 98 -233 327 -494 569 -651 128 -83 353 -176 484 -200 36 -7 37 -8 18 -21
-52 -37 -501 -204 -547 -204 -8 0 -14 -2 -14 -6 0 -6 106 -152 132 -180 l19
-22 127 48 c248 92 534 226 728 341 48 29 100 53 115 54 38 3 231 84 332 138
272 149 550 443 671 712 10 22 40 58 67 80 108 87 360 384 501 590 170 248
413 689 511 925 55 134 115 330 133 432 55 312 -63 567 -319 692 -109 52 -196
75 -320 83 l-90 6 8 -24z m-987 -1451 c-79 -89 -262 -304 -508 -594 -102 -120
-230 -270 -285 -334 -171 -196 -255 -295 -255 -300 0 -3 209 -4 465 -2 l465 3
0 -161 0 -160 -807 0 -806 0 20 23 c11 12 83 96 159 187 77 91 185 219 241
285 474 559 673 796 673 800 0 3 -241 5 -535 5 -607 0 -556 -9 -470 85 25 28
80 92 123 142 l77 93 754 0 753 0 -64 -72z"/>
<path d="M4613 6888 c-28 -35 -62 -81 -77 -102 l-27 -40 133 -46 c73 -26 157
-59 187 -73 l54 -27 31 24 c17 12 70 48 119 78 l87 56 -58 30 c-69 36 -209 95
-302 127 -36 13 -72 26 -81 30 -12 4 -30 -11 -66 -57z"/>
<path d="M7125 6760 c-84 -34 -98 -162 -23 -214 46 -33 128 -13 163 40 59 91
-40 216 -140 174z"/>
<path d="M3399 6725 c-56 -30 -63 -125 -12 -165 16 -12 41 -20 65 -20 92 0
134 110 67 173 -33 30 -78 35 -120 12z"/>
<path d="M2836 6654 c-99 -31 -169 -94 -212 -189 -24 -51 -28 -73 -28 -145 0
-71 5 -95 28 -146 34 -77 102 -144 181 -181 51 -23 73 -28 145 -28 71 0 94 5
142 27 75 35 141 98 175 167 25 50 28 67 28 161 0 91 -3 111 -23 149 -35 65
-108 137 -168 167 -69 33 -194 42 -268 18z m28 -185 c53 -42 18 -139 -52 -139
-70 0 -100 89 -46 138 31 28 64 28 98 1z"/>
<path d="M3935 5969 c-38 -16 -90 -36 -115 -44 -41 -14 -53 -26 -138 -145 -50
-72 -92 -134 -92 -138 0 -4 20 -35 43 -68 l43 -62 45 57 c127 160 314 431 297
430 -7 0 -44 -14 -83 -30z"/>
<path d="M6614 5984 c6 -15 301 -459 331 -498 15 -20 15 -20 29 0 8 10 29 47
47 80 l33 61 -80 114 c-44 63 -87 126 -96 140 -10 15 -33 30 -59 38 -24 7 -82
28 -127 47 -62 24 -82 29 -78 18z"/>
<path d="M3175 5950 c-32 -22 -111 -50 -144 -53 -12 -1 -21 -6 -21 -13 0 -34
222 -447 319 -593 l55 -84 18 24 c9 13 42 59 73 102 l55 78 -29 42 c-57 84
-109 176 -196 345 -49 94 -91 172 -94 172 -3 0 -19 -9 -36 -20z"/>
<path d="M2811 5624 c-219 -136 -364 -275 -425 -404 -27 -56 -31 -76 -30 -145
1 -94 18 -139 88 -232 63 -84 160 -171 300 -272 99 -71 119 -82 130 -70 7 8
43 58 79 111 l66 97 -72 39 c-205 113 -334 222 -358 303 -10 33 -9 45 6 79 38
85 153 174 351 273 57 28 104 56 104 62 0 15 -115 218 -126 222 -5 1 -56 -27
-113 -63z"/>
<path d="M7640 5572 c-33 -59 -60 -111 -60 -117 0 -5 39 -30 88 -54 225 -115
362 -236 362 -321 0 -89 -126 -208 -352 -334 -38 -21 -68 -40 -68 -43 0 -17
136 -213 148 -213 21 0 267 198 332 266 92 98 125 144 150 217 25 72 25 128 0
210 -44 143 -173 268 -457 445 l-82 52 -61 -108z"/>
<path d="M2816 5200 c-95 -29 -110 -157 -24 -210 40 -24 60 -25 103 -4 44 20
68 58 68 105 0 43 -33 95 -66 104 -43 12 -52 13 -81 5z"/>
<path d="M7721 5163 c-45 -23 -67 -74 -52 -123 14 -48 40 -70 89 -77 33 -4 44
-1 75 26 59 52 58 119 -3 162 -38 27 -71 31 -109 12z"/>
<path d="M7202 4814 l-73 -97 25 -36 c14 -20 55 -75 90 -123 158 -215 312
-486 381 -673 82 -220 94 -378 37 -500 -112 -239 -398 -292 -997 -184 -60 11
-116 22 -123 24 -9 3 0 28 29 86 44 89 108 247 128 320 12 43 15 46 67 62 184
57 507 208 653 305 11 8 5 23 -29 73 -24 35 -56 81 -72 101 l-29 37 -87 -55
c-161 -103 -401 -211 -608 -275 -71 -22 -72 -23 -78 -61 -4 -22 -20 -83 -37
-136 -93 -289 -289 -610 -557 -908 -48 -53 -97 -109 -110 -125 l-23 -28 46
-94 c25 -51 45 -101 45 -110 0 -9 4 -17 8 -17 28 0 336 362 457 535 27 39 52
74 55 78 4 4 66 -6 138 -22 359 -83 691 -100 907 -45 239 61 420 241 471 471
51 229 -43 565 -264 943 -88 151 -358 549 -372 550 -3 0 -38 -43 -78 -96z"/>
<path d="M3566 4554 l-39 -65 19 -33 c10 -18 53 -80 94 -139 74 -105 76 -107
150 -138 41 -17 103 -44 138 -60 34 -15 62 -26 62 -24 0 21 -363 525 -378 525
-4 0 -25 -30 -46 -66z"/>
<path d="M6894 4466 c-75 -91 -275 -367 -270 -373 1 -1 61 23 133 54 l131 55
74 102 c120 164 113 144 66 210 -22 31 -41 56 -44 56 -2 0 -43 -47 -90 -104z"/>
<path d="M7126 3657 c-56 -31 -79 -67 -84 -129 -5 -68 14 -117 62 -153 104
-79 261 -8 273 123 12 132 -135 225 -251 159z"/>
<path d="M3368 3514 c-63 -34 -78 -131 -29 -186 26 -29 35 -33 81 -33 47 0 55
3 86 37 25 28 34 47 34 73 0 96 -91 153 -172 109z"/>
<path d="M5715 3444 c-11 -8 -62 -40 -112 -71 -51 -30 -93 -58 -93 -62 0 -4
12 -14 28 -21 69 -32 246 -105 330 -136 l94 -34 18 22 c10 13 45 56 78 97 34
41 59 78 56 82 -2 4 -19 11 -37 14 -17 4 -100 34 -183 66 -83 33 -152 59 -155
59 -2 0 -13 -8 -24 -16z"/>
<path d="M4129 2832 c-126 -81 -114 -263 23 -333 154 -79 337 100 256 250 -13
25 -41 58 -61 75 -32 26 -48 31 -105 34 -60 3 -72 0 -113 -26z m83 -99 c37
-44 20 -93 -32 -93 -48 0 -66 54 -30 90 25 25 42 25 62 3z"/>
<path d="M5233 2685 c-79 -22 -127 -50 -187 -109 -166 -166 -167 -417 -2 -582
204 -204 540 -146 669 116 30 61 32 71 32 175 0 100 -2 115 -28 167 -91 186
-295 284 -484 233z m38 -244 c63 -64 16 -171 -75 -171 -38 0 -86 48 -93 92 -5
33 -2 41 30 73 46 46 95 49 138 6z"/>
</g>
</svg>
